<?xml version="1.0" encoding="UTF-8" standalone="no"?>
<svg
   width="40px"
   height="40px"
   viewBox="0 0 40 35"
   version="1.1"
   id="svg5"
   sodipodi:docname="pluginIcon.svg"
   inkscape:version="1.1.2 (0a00cf5339, 2022-02-04)"
   xmlns:inkscape="http://www.inkscape.org/namespaces/inkscape"
   xmlns:sodipodi="http://sodipodi.sourceforge.net/DTD/sodipodi-0.dtd"
   xmlns="http://www.w3.org/2000/svg"
   xmlns:svg="http://www.w3.org/2000/svg">
  <defs
     id="defs9">
    <filter
       style="color-interpolation-filters:sRGB;"
       inkscape:label="Invert"
       id="filter122"
       x="0"
       y="0"
       width="1"
       height="1">
      <feColorMatrix
         values="1 0 0 0 0 0 1 0 0 0 0 0 1 0 0 -0.21 -0.72 -0.07 2 0 "
         result="color2"
         id="feColorMatrix120" />
    </filter>
  </defs>
  <sodipodi:namedview
     id="namedview7"
     pagecolor="#ffffff"
     bordercolor="#666666"
     borderopacity="1.0"
     inkscape:pageshadow="2"
     inkscape:pageopacity="0.0"
     inkscape:pagecheckerboard="0"
     showgrid="false"
     inkscape:zoom="20.575"
     inkscape:cx="20"
     inkscape:cy="20"
     inkscape:window-width="1920"
     inkscape:window-height="1032"
     inkscape:window-x="0"
     inkscape:window-y="0"
     inkscape:window-maximized="1"
     inkscape:current-layer="surface1" />
  <g
     id="surface1"
     transform="matrix(0.87916712,0,0,0.87916712,2.3806839,1.7858287)"
     style="filter:url(#filter122)">
    <path
       style="fill:#aaaaff;fill-opacity:1;fill-rule:evenodd;stroke:none"
       d="m 19.429688,6.675781 c 0.457031,0 0.90625,0.027344 1.347656,0.078125 V 2.996094 C 20.566406,2.917969 20.382812,2.796875 20.226562,2.644531 19.9375,2.367188 19.761719,1.984375 19.761719,1.554688 c 0,-0.421876 0.175781,-0.808594 0.464843,-1.085938 0.285157,-0.28125 0.675782,-0.453125 1.109376,-0.453125 0.433593,0 0.828124,0.171875 1.117187,0.453125 0.285156,0.277344 0.460937,0.660156 0.460937,1.085938 0,0.425781 -0.175781,0.8125 -0.460937,1.089843 -0.15625,0.152344 -0.347656,0.273438 -0.554687,0.351563 V 6.9375 c 1.046874,0.222656 2.039062,0.585938 2.957031,1.066406 V 6.550781 c 0,-0.304687 0.25,-0.546875 0.5625,-0.546875 h 3.917969 c 0.07812,-0.195312 0.199218,-0.371094 0.347656,-0.515625 0.285156,-0.28125 0.675781,-0.453125 1.113281,-0.453125 0.433594,0 0.828125,0.171875 1.113281,0.453125 C 32.195312,5.765625 32.375,6.148438 32.375,6.574219 32.375,7 32.195312,7.382812 31.910156,7.664062 31.625,7.945312 31.234375,8.117188 30.796875,8.117188 30.359375,8.117188 29.96875,7.945312 29.6875,7.664062 29.523438,7.503906 29.398438,7.3125 29.320312,7.09375 h -3.335937 v 1.582031 c 2.328125,1.578125 4.035156,3.976563 4.679687,6.769531 h 7.109376 V 9.832031 C 37.601562,9.753906 37.441406,9.644531 37.3125,9.515625 37.023438,9.234375 36.847656,8.851562 36.847656,8.425781 c 0,-0.421875 0.175782,-0.808593 0.464844,-1.089843 0.285156,-0.28125 0.675781,-0.453126 1.113281,-0.453126 0.429688,0 0.824219,0.171876 1.113281,0.453126 C 39.824219,7.617188 40,8 40,8.425781 40,8.851562 39.824219,9.234375 39.539062,9.515625 39.359375,9.691406 39.136719,9.820312 38.894531,9.898438 v 6.097656 c 0,0.304687 -0.253906,0.546875 -0.5625,0.546875 h -7.46875 c 0.05859,0.460937 0.08594,0.929687 0.08594,1.40625 0,0.636719 -0.05469,1.261719 -0.160157,1.871093 h 6.15625 c 0.07813,-0.207031 0.203126,-0.390624 0.359376,-0.542968 0.285156,-0.28125 0.675781,-0.453125 1.113281,-0.453125 0.433593,0 0.828125,0.171875 1.113281,0.453125 0.285156,0.28125 0.460938,0.664062 0.460938,1.089844 0,0.421874 -0.175782,0.808593 -0.460938,1.089843 -0.285156,0.277344 -0.675781,0.449219 -1.113281,0.449219 -0.433594,0 -0.828125,-0.171875 -1.113281,-0.449219 -0.152344,-0.152343 -0.28125,-0.335937 -0.359376,-0.542969 h -6.398437 c -0.722656,2.59375 -2.363281,4.8125 -4.5625,6.304688 v 0.683594 h 3.335937 c 0.07813,-0.21875 0.203126,-0.410156 0.367188,-0.570313 0.28125,-0.28125 0.675781,-0.453125 1.109375,-0.453125 0.4375,0 0.828125,0.171875 1.113281,0.453125 0.285156,0.28125 0.464844,0.664063 0.464844,1.089844 0,0.425781 -0.179688,0.808594 -0.464844,1.089844 -0.285156,0.277343 -0.679687,0.449219 -1.113281,0.449219 -0.4375,0 -0.828125,-0.171876 -1.113281,-0.449219 -0.144532,-0.144531 -0.265625,-0.320313 -0.347656,-0.515625 h -3.914063 c -0.3125,0 -0.5625,-0.246094 -0.5625,-0.550782 v -0.554687 c -0.917969,0.480469 -1.914063,0.84375 -2.957031,1.066406 V 32 c 0.210937,0.07813 0.398437,0.203125 0.550781,0.351562 0.289063,0.28125 0.464844,0.664063 0.464844,1.089844 0,0.425782 -0.175781,0.808594 -0.464844,1.089844 -0.285156,0.277344 -0.679687,0.449219 -1.113281,0.449219 -0.433594,0 -0.824219,-0.171875 -1.113282,-0.449219 -0.285156,-0.28125 -0.460937,-0.667969 -0.460937,-1.089844 0,-0.425781 0.175781,-0.808594 0.460937,-1.089844 C 20.382812,32.199219 20.570312,32.078125 20.78125,32 v -2.859375 c -0.441406,0.05078 -0.890625,0.07813 -1.347656,0.07813 -0.679688,0 -1.347656,-0.05859 -1.996094,-0.171875 v 4.3125 c 0,0.300781 -0.25,0.546875 -0.558594,0.546875 H 10.640625 C 10.5625,34.148438 10.429688,34.363281 10.25,34.535156 9.964844,34.816406 9.570312,34.988281 9.136719,34.988281 8.703125,34.988281 8.3125,34.816406 8.023438,34.535156 7.738281,34.257812 7.5625,33.871094 7.5625,33.445312 c 0,-0.425781 0.175781,-0.808593 0.460938,-1.085937 0.289062,-0.28125 0.679687,-0.453125 1.113281,-0.453125 0.4375,0 0.828125,0.171875 1.113281,0.453125 0.132812,0.128906 0.242188,0.28125 0.324219,0.449219 h 5.742187 V 28.800781 C 15.246094,28.507812 14.234375,28.0625 13.3125,27.496094 c -0.09766,0.08984 -0.230469,0.144531 -0.375,0.144531 H 9.53125 c -0.078125,0.199219 -0.203125,0.378906 -0.355469,0.527344 -0.285156,0.277343 -0.679687,0.449219 -1.113281,0.449219 -0.433594,0 -0.828125,-0.171876 -1.113281,-0.449219 -0.285157,-0.277344 -0.460938,-0.664063 -0.460938,-1.089844 0,-0.429687 0.175781,-0.808594 0.460938,-1.089844 0.285156,-0.28125 0.679687,-0.453125 1.113281,-0.453125 0.433594,0 0.828125,0.171875 1.113281,0.453125 0.160157,0.15625 0.285157,0.347657 0.363281,0.558594 h 2.445313 C 9.863281,24.785156 8.402344,22.285156 8.015625,19.453125 H 2.226562 v 5.617187 c 0.171876,0.07813 0.332032,0.183594 0.460938,0.316407 0.289062,0.28125 0.464844,0.660156 0.464844,1.089843 0,0.421876 -0.175782,0.808594 -0.464844,1.085938 C 2.402344,27.84375 2.011719,28.015625 1.574219,28.015625 1.140625,28.015625 0.75,27.84375 0.460938,27.5625 0.175781,27.289062 0,26.902344 0,26.476562 0,26.050781 0.175781,25.667969 0.460938,25.386719 0.640625,25.210938 0.863281,25.082031 1.105469,25.003906 V 18.90625 c 0,-0.300781 0.253906,-0.546875 0.5625,-0.546875 h 6.25 c -0.00781,-0.136719 -0.00781,-0.273437 -0.00781,-0.410156 0,-0.992188 0.128906,-1.949219 0.375,-2.863281 H 3.050781 c -0.078125,0.207031 -0.203125,0.386718 -0.359375,0.542968 -0.285156,0.277344 -0.675781,0.449219 -1.113281,0.449219 -0.433594,0 -0.824219,-0.171875 -1.113281,-0.449219 -0.285156,-0.28125 -0.46093775,-0.664062 -0.46093775,-1.089844 0,-0.425781 0.17578175,-0.808593 0.46093775,-1.089843 0.289062,-0.28125 0.679687,-0.453125 1.113281,-0.453125 0.433594,0 0.828125,0.171875 1.113281,0.453125 0.152344,0.148437 0.28125,0.332031 0.359375,0.539062 H 8.640625 C 9.394531,12.019531 10.699219,10.3125 12.371094,9.042969 V 8.457031 H 9.539062 C 9.460938,8.667969 9.332031,8.859375 9.171875,9.015625 8.886719,9.296875 8.492188,9.46875 8.058594,9.46875 7.625,9.46875 7.234375,9.296875 6.945312,9.015625 6.660156,8.734375 6.484375,8.351562 6.484375,7.925781 6.484375,7.5 6.660156,7.113281 6.945312,6.835938 7.234375,6.554688 7.625,6.382812 8.058594,6.382812 c 0.433594,0 0.828125,0.171876 1.113281,0.453126 0.152344,0.152343 0.273437,0.328124 0.355469,0.527343 h 3.40625 c 0.308594,0 0.558594,0.246094 0.558594,0.546875 V 8.292969 C 14.367188,7.78125 15.3125,7.375 16.3125,7.097656 V 2.191406 H 10.574219 C 10.496094,2.359375 10.382812,2.515625 10.25,2.640625 9.964844,2.921875 9.574219,3.09375 9.136719,3.09375 8.703125,3.09375 8.3125,2.921875 8.023438,2.640625 7.738281,2.363281 7.5625,1.980469 7.5625,1.554688 c 0,-0.425782 0.175781,-0.8125 0.460938,-1.089844 0.289062,-0.28125 0.679687,-0.4531252 1.113281,-0.4531252 0.433593,0 0.828125,0.1718752 1.113281,0.4531252 0.179688,0.175781 0.3125,0.390625 0.390625,0.628906 H 16.875 c 0.308594,0 0.558594,0.246094 0.558594,0.546875 V 6.847656 C 18.082031,6.734375 18.75,6.675781 19.429688,6.675781 Z m -4.636719,10.144531 h 0.921875 v -1.898437 c 0,-1.027344 0.429687,-1.957031 1.121094,-2.632813 0.691406,-0.675781 1.644531,-1.09375 2.691406,-1.09375 1.046875,0 2,0.417969 2.691406,1.09375 0.6875,0.675782 1.117188,1.609376 1.117188,2.632813 v 1.898437 h 0.734374 c 0.160157,0 0.292969,0.132813 0.292969,0.292969 v 6.132813 c 0,0.160156 -0.132812,0.289062 -0.292969,0.289062 H 14.792969 C 14.632812,23.535156 14.5,23.40625 14.5,23.246094 v -6.132813 c 0,-0.160156 0.132812,-0.292969 0.292969,-0.292969 z m 2.402343,0 h 4.65625 v -1.917968 c 0,-0.628906 -0.261718,-1.199219 -0.683593,-1.613282 -0.421875,-0.414062 -1.003907,-0.667968 -1.644531,-0.667968 -0.640626,0 -1.222657,0.257812 -1.644532,0.667968 -0.425781,0.414063 -0.683594,0.984376 -0.683594,1.613282 z m 2.347657,3.359376 0.46875,2.125 h -1.289063 l 0.378906,-2.152344 C 18.75,20.042969 18.492188,19.71875 18.492188,19.335938 c 0,-0.46875 0.390624,-0.851563 0.875,-0.851563 0.480468,0 0.871093,0.382813 0.871093,0.851563 0.0039,0.417968 -0.296875,0.761718 -0.695312,0.84375 z m 0,0"
       id="path2" />
  </g>
</svg>
